TITLE "Fuzzy Warbles 5"
PERFORMER "Andy Partridge"
CATALOG 4988013767300
REM DISCID 070EE414
FILE "Fuzzy Warbles 5.flac" WAVE
  TRACK 01 AUDIO
    TITLE "Welcome to Volume 5"
    ISRC GBFHR0400107
    INDEX 00 00:00:00
    INDEX 01 00:58:00
  TRACK 02 AUDIO
    TITLE "Young Cleopatra"
    ISRC GBFHR0400108
    INDEX 01 01:23:55
  TRACK 03 AUDIO
    TITLE "I Defy You Gravity"
    ISRC GBFHR0400109
    INDEX 01 05:15:30
  TRACK 04 AUDIO
    TITLE "Ice Jet Kiss"
    ISRC GBFHR0400110
    INDEX 01 09:33:35
  TRACK 05 AUDIO
    TITLE "Broomstick Rhythm"
    ISRC GBFHR0400111
    INDEX 01 10:10:42
  TRACK 06 AUDIO
    TITLE "Earn Enough For Us"
    ISRC GBFHR0400112
    INDEX 01 13:47:45
  TRACK 07 AUDIO
    TITLE "Dear God"
    ISRC GBFHR0400113
    INDEX 01 16:51:02
  TRACK 08 AUDIO
    TITLE "Crocodile"
    ISRC GBFHR0400114
    INDEX 00 17:50:60
    INDEX 01 17:51:35
  TRACK 09 AUDIO
    TITLE "Motercycle Landscape"
    ISRC GBFHR0400115
    INDEX 01 21:40:35
  TRACK 10 AUDIO
    TITLE "Rook"
    ISRC GBFHR0400116
    INDEX 00 26:17:65
    INDEX 01 26:19:27
  TRACK 11 AUDIO
    TITLE "Don't You Ever Dare Call Me Chickenhead"
    ISRC GBFHR0400117
    INDEX 01 30:03:65
  TRACK 12 AUDIO
    TITLE "Mermaid Explanation"
    ISRC GBFHR0400118
    INDEX 00 32:15:40
    INDEX 01 32:16:37
  TRACK 13 AUDIO
    TITLE "Mermaid Smiled"
    ISRC GBFHR0400119
    INDEX 01 33:21:52
  TRACK 14 AUDIO
    TITLE "Aqua Deum"
    ISRC GBFHR0400120
    INDEX 01 35:48:62
  TRACK 15 AUDIO
    TITLE "Me And The Wind"
    ISRC GBFHR0400121
    INDEX 01 38:24:27
  TRACK 16 AUDIO
    TITLE "Smalltown"
    ISRC GBFHR0400122
    INDEX 01 42:44:00
  TRACK 17 AUDIO
    TITLE "Blue Overall"
    ISRC GBFHR0400123
    INDEX 01 46:45:47
  TRACK 18 AUDIO
    TITLE "Red Brick Dream"
    ISRC GBFHR0400124
    INDEX 01 49:55:37
  TRACK 19 AUDIO
    TITLE "Jacob's Ladder"
    ISRC GBFHR0400125
    INDEX 01 51:18:37
  TRACK 20 AUDIO
    TITLE "My Land Is Burning"
    ISRC GBFHR0400126
    INDEX 00 57:31:35
    INDEX 01 57:33:15
